<mxfile host="app.diagrams.net" modified="2024-03-02T14:14:12.284Z" agent="Mozilla/5.0 (Windows NT 10.0; Win64; x64; rv:123.0) Gecko/20100101 Firefox/123.0" version="24.0.0" etag="vndlDygpWSnO_Ha9ReCM" type="github">
  <diagram name="Page-1" id="pS2UVXNv7dsi0oAbG3jP">
    <mxGraphModel>
      <root>
        <mxCell id="0" />
        <mxCell id="1" parent="0" />
      </root>
    </mxGraphModel>
  </diagram>
</mxfile>
